PathFileType        4      (X/Y/Z)      C:\Users\pc\Desktop\IMUTRC\Sujet_02\Sujet_02_Tpose.trc         
DataRate	CameraRate	NumFrames	NumMarkers	Units	OrigDataRate	OrigDataStartFrame	OrigNumFrames
60.0	60.0	4	64	mm	60.0	117	155
Frame#	Time	pHipOrigin			pRightASI			pLeftASI			pRightCSI			pLeftCSI			pRightIschialTub			pLeftIschialTub			pSacrum			pL5SpinalProcess			pL3SpinalProcess			pT12SpinalProcess			pIJ			pT4SpinalProcess			pT8SpinalProcess			pPX			pC7SpinalProcess			pTopOfHead			pRightAuricularis			pLeftAuricularis			pBackOfHead			pRightAcromion			pLeftAcromion			pRightArmLatEpicondyle			pRightArmMedEpicondyle			pLeftArmLatEpicondyle			pLeftArmMedEpicondyle			pRightUlnarStyloid			pRightRadialStyloid			pRightOlecranon			pLeftUlnarStyloid			pLeftRadialStyloid			pLeftOlecranon			pRightTopOfHand			pRightPinky			pRightBallHand			pLeftTopOfHand			pLeftPinky			pLeftBallHand			pRightGreaterTrochanter			pRightKneeLatEpicondyle			pRightKneeMedEpicondyle			pRightPatella			pLeftGreaterTrochanter			pLeftKneeLatEpicondyle			pLeftKneeMedEpicondyle			pLeftPatella			pRightTibialTub			pRightLatMalleolus			pRightMedMalleolus			pLeftTibialTub			pLeftLatMalleolus			pLeftMedMalleolus			pRightHeelFoot			pRightFirstMetatarsal			pRightFifthMetatarsal			pRightPivotFoot			pRightHeelCenter			pRightToe			pLeftHeelFoot			pLeftFirstMetatarsal			pLeftFifthMetatarsal			pLeftPivotFoot			pLeftHeelCenter			pLeftToe			
		X1	Y1	Z1	X2	Y2	Z2	X3	Y3	Z3	X4	Y4	Z4	X5	Y5	Z5	X6	Y6	Z6	X7	Y7	Z7	X8	Y8	Z8	X9	Y9	Z9	X10	Y10	Z10	X11	Y11	Z11	X12	Y12	Z12	X13	Y13	Z13	X14	Y14	Z14	X15	Y15	Z15	X16	Y16	Z16	X17	Y17	Z17	X18	Y18	Z18	X19	Y19	Z19	X20	Y20	Z20	X21	Y21	Z21	X22	Y22	Z22	X23	Y23	Z23	X24	Y24	Z24	X25	Y25	Z25	X26	Y26	Z26	X27	Y27	Z27	X28	Y28	Z28	X29	Y29	Z29	X30	Y30	Z30	X31	Y31	Z31	X32	Y32	Z32	X33	Y33	Z33	X34	Y34	Z34	X35	Y35	Z35	X36	Y36	Z36	X37	Y37	Z37	X38	Y38	Z38	X39	Y39	Z39	X40	Y40	Z40	X41	Y41	Z41	X42	Y42	Z42	X43	Y43	Z43	X44	Y44	Z44	X45	Y45	Z45	X46	Y46	Z46	X47	Y47	Z47	X48	Y48	Z48	X49	Y49	Z49	X50	Y50	Z50	X51	Y51	Z51	X52	Y52	Z52	X53	Y53	Z53	X54	Y54	Z54	X55	Y55	Z55	X56	Y56	Z56	X57	Y57	Z57	X58	Y58	Z58	X59	Y59	Z59	X60	Y60	Z60	X61	Y61	Z61	X62	Y62	Z62	X63	Y63	Z63	X64	Y64	Z64	
117	1.933	-4419.33229	1100.4552200000005	-6472.31721	-4331.77513	1190.5469200000005	-6326.46542	-4366.56758	1222.3439900000005	-6611.48701	-4382.46612	1263.1272000000004	-6338.44692	-4410.80699	1289.3943400000005	-6572.3167	-4470.4841	1032.7136300000004	-6413.56175	-4484.76975	1045.8472000000004	-6530.38143	-4489.83884	1121.4228500000004	-6461.25736	-4451.82061	1218.8877900000005	-6455.95785	-4437.30455	1333.8641600000005	-6452.96247	-4433.84835	1439.8544100000004	-6452.50164	-4257.35155	1645.1529000000005	-6473.23886	-4414.95443	1638.2404900000004	-6460.3357	-4429.24008	1545.3838200000005	-6455.26661	-4271.63719	1517.7341900000004	-6466.55687	-4403.20334	1693.0789200000004	-6461.9486	-4340.76126	1912.6630500000006	-6494.43691	-4321.63694	1832.9399600000004	-6422.54788	-4355.73815	1817.9630800000004	-6546.51038	-4387.76563	1826.0275500000005	-6471.16514	-4385.4615	1684.0927900000004	-6259.64548	-4412.41988	1674.6458300000004	-6664.71254	-4382.69653	1561.5127700000005	-5990.52243	-4332.23596	1523.7249500000005	-6005.2689	-4359.42476	1528.3332200000004	-6921.62367	-4301.13013	1511.0522000000005	-6899.04314	-4292.144	1484.0938100000005	-5724.16434	-4311.03791	1538.7018300000004	-5714.25656	-4351.12987	1517.9646100000004	-6009.64676	-4268.4114	1440.7760600000004	-7180.1477	-4301.13013	1487.0891900000004	-7194.66375	-4317.71991	1498.8402800000003	-6896.27818	-4293.98731	1511.0522000000003	-5531.99943	-4268.87223	1480.8680200000003	-5613.79624	-4278.5496	1503.4485500000005	-5686.83735	-4257.81238	1448.3797100000004	-7372.0822	-4235.92309	1431.0986900000005	-7285.4467	-4257.12114	1458.0570800000005	-7216.55304	-4406.19872	1056.4462200000005	-6297.66372	-4443.2953	610.5959600000003	-6327.38707	-4445.36903	609.9047200000003	-6413.79216	-4396.06052	609.6743100000003	-6374.62186	-4449.9773	1081.3308900000004	-6646.04904	-4477.85734	634.0981500000005	-6628.53761	-4457.58094	629.4898800000004	-6544.43666	-4419.79312	631.5636000000004	-6595.12764	-4383.38777	569.8127600000004	-6374.39144	-4454.35515	145.3909600000004	-6334.06907	-4455.73764	144.6997200000004	-6402.5019	-4408.50285	591.0108100000004	-6600.19674	-4493.98629	169.1235600000004	-6638.21498	-4477.85734	165.4369400000004	-6571.85587	-4511.26731	32.02749000000039	-6393.51577	-4326.70604	9.446960000000391	-6396.05032	-4346.98243	0.46083000000038643	-6310.7973	-4312.42039	1.3824800000003887	-6349.27636	-4469.79286	24.654250000000392	-6384.29923	-4230.62358	1.1520700000003876	-6330.15204	-4556.65878	66.1286900000004	-6568.39967	-4385.23108	7.373230000000405	-6610.56535	-4426.2447	7.8340600000004095	-6688.21473	-4384.30943	-0.46082999999959223	-6659.41303	-4520.71426	51.1518100000004	-6587.29358	-4309.88585	0.6912400000004101	-6698.58334	
118	1.95	-4419.10188	1100.4552200000005	-6472.0868	-4331.77513	1190.5469200000005	-6326.23501	-4366.56758	1222.3439900000005	-6611.48701	-4382.23571	1263.1272000000004	-6338.44692	-4410.80699	1289.1639300000004	-6572.08629	-4470.4841	1032.7136300000004	-6413.56175	-4484.76975	1045.8472000000004	-6530.38143	-4489.83884	1121.4228500000004	-6461.25736	-4451.59019	1218.8877900000005	-6455.72743	-4437.30455	1333.8641600000005	-6452.73206	-4433.84835	1439.6239900000005	-6452.27123	-4257.35155	1645.1529000000005	-6473.23886	-4414.95443	1638.2404900000004	-6460.10529	-4429.24008	1545.3838200000005	-6455.03619	-4271.40678	1517.7341900000004	-6466.55687	-4403.20334	1693.0789200000004	-6461.71819	-4340.76126	1912.6630500000006	-6494.43691	-4321.63694	1832.9399600000004	-6422.54788	-4355.73815	1817.9630800000004	-6546.51038	-4387.76563	1826.0275500000005	-6471.16514	-4385.4615	1684.0927900000004	-6259.41507	-4412.41988	1674.6458300000004	-6664.71254	-4382.46612	1561.5127700000005	-5990.29202	-4332.00555	1523.7249500000005	-6005.2689	-4359.42476	1528.1028000000003	-6921.39326	-4301.13013	1511.0522000000005	-6898.81273	-4291.91359	1484.0938100000005	-5723.93393	-4310.8075	1538.7018300000004	-5714.25656	-4351.12987	1517.9646100000004	-6009.64676	-4268.64182	1440.7760600000004	-7179.91729	-4301.36054	1487.0891900000004	-7194.66375	-4317.71991	1498.8402800000003	-6896.27818	-4293.7569	1511.0522000000003	-5531.76901	-4268.64182	1480.8680200000003	-5613.79624	-4278.31919	1503.4485500000005	-5686.83735	-4257.81238	1448.1492900000005	-7372.0822	-4235.92309	1431.0986900000005	-7285.4467	-4257.35155	1457.8266600000004	-7216.32263	-4405.9683	1056.4462200000005	-6297.66372	-4443.2953	610.5959600000003	-6327.38707	-4445.36903	609.9047200000003	-6413.79216	-4395.83011	609.6743100000003	-6374.62186	-4449.9773	1081.3308900000004	-6645.81863	-4477.85734	634.0981500000005	-6628.53761	-4457.58094	629.2594600000004	-6544.43666	-4419.79312	631.5636000000004	-6595.12764	-4383.38777	569.8127600000004	-6374.39144	-4454.35515	145.3909600000004	-6334.06907	-4455.73764	144.6997200000004	-6402.5019	-4408.50285	591.0108100000004	-6600.19674	-4493.98629	169.1235600000004	-6638.21498	-4477.85734	165.20653000000038	-6571.85587	-4511.26731	31.797070000000392	-6393.51577	-4326.70604	9.446960000000391	-6396.05032	-4346.98243	0.46083000000038643	-6310.7973	-4312.42039	1.3824800000003887	-6349.27636	-4469.79286	24.654250000000392	-6384.29923	-4230.62358	1.1520700000003876	-6330.15204	-4556.65878	66.1286900000004	-6568.39967	-4385.23108	7.373230000000405	-6610.56535	-4426.2447	7.8340600000004095	-6688.21473	-4384.30943	-0.46082999999959223	-6659.41303	-4520.71426	51.1518100000004	-6587.29358	-4309.88585	0.6912400000004101	-6698.58334	
119	1.967	-4419.10188	1100.2248000000004	-6472.0868	-4331.54472	1190.5469200000005	-6326.23501	-4366.33717	1222.3439900000005	-6611.25659	-4382.23571	1263.1272000000004	-6338.21651	-4410.80699	1289.1639300000004	-6572.08629	-4470.25369	1032.7136300000004	-6413.33134	-4484.53933	1045.6167900000005	-6530.15102	-4489.60843	1121.4228500000004	-6461.02694	-4451.59019	1218.8877900000005	-6455.72743	-4437.30455	1333.8641600000005	-6452.73206	-4433.84835	1439.6239900000005	-6452.27123	-4257.35155	1645.1529000000005	-6473.00845	-4414.95443	1638.0100800000005	-6460.10529	-4429.00966	1545.3838200000005	-6455.03619	-4271.40678	1517.7341900000004	-6466.55687	-4403.20334	1693.0789200000004	-6461.71819	-4340.76126	1912.4326400000004	-6494.43691	-4321.63694	1832.9399600000004	-6422.54788	-4355.73815	1817.9630800000004	-6546.27997	-4387.76563	1826.0275500000005	-6470.93473	-4385.23108	1684.0927900000004	-6259.41507	-4412.41988	1674.4154200000005	-6664.71254	-4382.46612	1561.5127700000005	-5990.29202	-4332.00555	1523.7249500000005	-6005.03849	-4359.65518	1528.1028000000003	-6921.39326	-4301.36054	1510.8217900000004	-6898.81273	-4291.68317	1484.3242200000004	-5723.93393	-4310.8075	1538.7018300000004	-5714.02615	-4351.12987	1517.9646100000004	-6009.64676	-4268.87223	1440.5456500000005	-7179.91729	-4301.59096	1486.8587700000005	-7194.43334	-4317.71991	1498.8402800000003	-6896.27818	-4293.7569	1511.2826100000002	-5531.76901	-4268.4114	1480.8680200000003	-5613.79624	-4278.31919	1503.6789600000004	-5686.60693	-4257.81238	1447.9188800000004	-7371.85179	-4236.1535	1430.8682800000004	-7285.21629	-4257.58196	1457.8266600000004	-7216.32263	-4405.9683	1056.4462200000005	-6297.43331	-4443.2953	610.5959600000003	-6327.15666	-4445.36903	609.9047200000003	-6413.79216	-4395.83011	609.6743100000003	-6374.62186	-4449.74688	1081.1004800000005	-6645.81863	-4477.85734	634.0981500000005	-6628.3072	-4457.35053	629.2594600000004	-6544.43666	-4419.79312	631.5636000000004	-6594.89723	-4383.38777	569.8127600000004	-6374.39144	-4454.35515	145.3909600000004	-6334.06907	-4455.73764	144.6997200000004	-6402.5019	-4408.50285	591.0108100000004	-6599.96633	-4493.98629	168.8931500000004	-6638.21498	-4477.85734	165.20653000000038	-6571.85587	-4511.26731	31.797070000000392	-6393.51577	-4326.70604	9.446960000000391	-6395.8199	-4346.98243	0.46083000000038643	-6310.7973	-4312.42039	1.3824800000003887	-6349.27636	-4469.79286	24.42384000000039	-6384.29923	-4230.62358	1.1520700000003876	-6330.15204	-4556.65878	66.1286900000004	-6568.39967	-4385.23108	7.373230000000405	-6610.56535	-4426.2447	7.8340600000004095	-6688.21473	-4384.30943	-0.46082999999959223	-6659.41303	-4520.71426	51.1518100000004	-6587.29358	-4309.88585	0.6912400000004101	-6698.58334	
120	1.983	-4418.87146	1100.2248000000004	-6472.0868	-4331.54472	1190.3165100000006	-6326.00459	-4366.33717	1222.3439900000005	-6611.25659	-4382.00529	1263.1272000000004	-6338.21651	-4410.57658	1289.1639300000004	-6571.85587	-4470.25369	1032.7136300000004	-6413.33134	-4484.53933	1045.6167900000005	-6530.15102	-4489.60843	1121.4228500000004	-6461.02694	-4451.59019	1218.6573800000006	-6455.72743	-4437.07414	1333.8641600000005	-6452.73206	-4433.61793	1439.6239900000005	-6452.04082	-4257.35155	1645.1529000000005	-6473.00845	-4414.95443	1638.0100800000005	-6460.10529	-4429.00966	1545.3838200000005	-6455.03619	-4271.40678	1517.7341900000004	-6466.32646	-4403.20334	1693.0789200000004	-6461.71819	-4340.53085	1912.4326400000004	-6494.43691	-4321.63694	1832.9399600000004	-6422.31746	-4355.73815	1817.9630800000004	-6546.27997	-4387.53522	1826.0275500000005	-6470.93473	-4385.23108	1684.0927900000004	-6259.41507	-4412.41988	1674.4154200000005	-6664.48213	-4382.23571	1561.5127700000005	-5990.29202	-4331.77513	1523.7249500000005	-6005.03849	-4359.65518	1527.8723900000005	-6921.16285	-4301.36054	1510.8217900000004	-6898.81273	-4291.68317	1484.3242200000004	-5723.93393	-4310.57709	1538.7018300000004	-5714.02615	-4350.89946	1518.1950200000006	-6009.41635	-4269.10264	1440.5456500000005	-7179.91729	-4301.82137	1486.8587700000005	-7194.43334	-4317.95032	1498.6098700000005	-6896.04777	-4293.52648	1511.2826100000002	-5531.76901	-4268.18099	1481.0984300000005	-5613.56583	-4278.08877	1503.6789600000004	-5686.60693	-4257.81238	1447.9188800000004	-7371.85179	-4236.1535	1430.8682800000004	-7285.21629	-4257.58196	1457.5962500000005	-7216.32263	-4405.9683	1056.4462200000005	-6297.43331	-4443.2953	610.5959600000003	-6327.15666	-4445.36903	609.9047200000003	-6413.79216	-4395.83011	609.6743100000003	-6374.62186	-4449.74688	1081.1004800000005	-6645.81863	-4477.62693	634.0981500000005	-6628.3072	-4457.35053	629.2594600000004	-6544.20624	-4419.79312	631.5636000000004	-6594.89723	-4383.38777	569.8127600000004	-6374.39144	-4454.35515	145.3909600000004	-6334.06907	-4455.73764	144.6997200000004	-6402.5019	-4408.27244	591.0108100000004	-6599.96633	-4493.98629	168.8931500000004	-6638.21498	-4477.85734	165.20653000000038	-6571.85587	-4511.26731	31.797070000000392	-6393.51577	-4326.70604	9.446960000000391	-6395.8199	-4346.98243	0.46083000000038643	-6310.7973	-4312.42039	1.3824800000003887	-6349.27636	-4469.79286	24.42384000000039	-6384.29923	-4230.62358	1.1520700000003876	-6330.15204	-4556.65878	66.1286900000004	-6568.39967	-4385.23108	7.373230000000405	-6610.56535	-4426.2447	7.8340600000004095	-6688.21473	-4384.30943	-0.46082999999959223	-6659.41303	-4520.71426	51.1518100000004	-6587.29358	-4309.88585	0.6912400000004101	-6698.58334	
